<svg width="360" height="235" viewBox="0 0 360 235" fill="none" xmlns="http://www.w3.org/2000/svg">
<g clip-path="url(#clip0)">
<path opacity="0.75" d="M352.711 81.7438H140.281V96.843H352.711V81.7438Z" fill="#FAAF40"/>
<path d="M355.054 2.6033H49.1655V197.591H355.054V2.6033Z" stroke="#6D6E70" stroke-width="5.20661" stroke-miterlimit="10"/>
<path d="M70.5126 2.6033H49.1655V197.591H70.5126V2.6033Z" fill="#D0D2D3" stroke="#6D6E70" stroke-width="5.20661" stroke-miterlimit="10"/>
<path d="M59.839 19.7851C62.8583 19.7851 65.306 17.3375 65.306 14.3182C65.306 11.2989 62.8583 8.85123 59.839 8.85123C56.8197 8.85123 54.3721 11.2989 54.3721 14.3182C54.3721 17.3375 56.8197 19.7851 59.839 19.7851Z" fill="#6D6E70"/>
<path d="M59.839 40.8719C62.8583 40.8719 65.306 38.4243 65.306 35.405C65.306 32.3857 62.8583 29.938 59.839 29.938C56.8197 29.938 54.3721 32.3857 54.3721 35.405C54.3721 38.4243 56.8197 40.8719 59.839 40.8719Z" fill="#6D6E70"/>
<path d="M59.839 61.9587C62.8583 61.9587 65.306 59.5111 65.306 56.4918C65.306 53.4724 62.8583 51.0248 59.839 51.0248C56.8197 51.0248 54.3721 53.4724 54.3721 56.4918C54.3721 59.5111 56.8197 61.9587 59.839 61.9587Z" fill="#6D6E70"/>
<path d="M59.839 83.3058C62.8583 83.3058 65.306 80.8581 65.306 77.8388C65.306 74.8195 62.8583 72.3719 59.839 72.3719C56.8197 72.3719 54.3721 74.8195 54.3721 77.8388C54.3721 80.8581 56.8197 83.3058 59.839 83.3058Z" fill="#6D6E70"/>
<path d="M166.054 26.814H200.938" stroke="#00ADEE" stroke-width="5.20661" stroke-miterlimit="10"/>
<path d="M174.645 42.4338H204.583" stroke="#58595B" stroke-width="5.20661" stroke-miterlimit="10"/>
<path d="M174.645 58.0537H317.566" stroke="#58595B" stroke-width="5.20661" stroke-miterlimit="10"/>
<path d="M187.401 89.2934H329.281" stroke="#58595B" stroke-width="5.20661" stroke-miterlimit="10"/>
<path d="M197.033 104.913H291.272" stroke="#58595B" stroke-width="5.20661" stroke-miterlimit="10"/>
<path d="M174.645 73.6735H234.781" stroke="#58595B" stroke-width="5.20661" stroke-miterlimit="10"/>
<path d="M355.054 139.277H141.322V197.591H355.054V139.277Z" stroke="#58595B" stroke-width="5.20661" stroke-miterlimit="10"/>
<path d="M140.541 2.6033H70.5125V197.591H140.541V2.6033Z" fill="#D0D2D3" stroke="#6D6E70" stroke-width="5.20661" stroke-miterlimit="10"/>
<path d="M140.541 7.28922H70.5125V58.0537H140.541V7.28922Z" stroke="#6D6E70" stroke-width="5.20661" stroke-miterlimit="10"/>
<path d="M140.541 58.0537H70.5125V108.818H140.541V58.0537Z" stroke="#6D6E70" stroke-width="5.20661" stroke-miterlimit="10"/>
<path d="M140.541 108.558H70.5125V159.322H140.541V108.558Z" stroke="#6D6E70" stroke-width="5.20661" stroke-miterlimit="10"/>
<path d="M154.86 177.806L161.368 184.314L154.86 190.822" stroke="#BBBDBF" stroke-width="5.20661" stroke-miterlimit="10"/>
<path d="M78.843 16.6611H103.314" stroke="#58595B" stroke-width="5.20661" stroke-miterlimit="10"/>
<path d="M107.479 16.6611H122.578" stroke="#28ABE2" stroke-width="5.20661" stroke-miterlimit="10"/>
<path d="M107.479 25.5124H122.578" stroke="#28ABE2" stroke-width="5.20661" stroke-miterlimit="10"/>
<path d="M78.843 25.5124H103.314" stroke="#58595B" stroke-width="5.20661" stroke-miterlimit="10"/>
<path d="M78.843 67.1653H112.165" stroke="#58595B" stroke-width="5.20661" stroke-miterlimit="10"/>
<path d="M78.843 117.93H112.165" stroke="#58595B" stroke-width="5.20661" stroke-miterlimit="10"/>
<path d="M78.843 125.479H112.165" stroke="#58595B" stroke-width="5.20661" stroke-miterlimit="10"/>
<path d="M78.843 169.475H112.165" stroke="#58595B" stroke-width="5.20661" stroke-miterlimit="10"/>
<path opacity="0.75" d="M152.517 93.9793C155.105 93.9793 157.202 91.8813 157.202 89.2934C157.202 86.7054 155.105 84.6074 152.517 84.6074C149.929 84.6074 147.831 86.7054 147.831 89.2934C147.831 91.8813 149.929 93.9793 152.517 93.9793Z" fill="#F42534"/>
</g>
<path d="M0 117C0 143.51 21.4903 165 48 165C74.5097 165 96 143.51 96 117C96 90.4903 74.5097 69 48 69C21.4903 69 0 90.4903 0 117Z" fill="#37B34A"/>
<path d="M25.2341 119.293L25.2217 119.107C25.2257 119.169 25.2298 119.231 25.2341 119.293Z" fill="white"/>
<path d="M44.6066 121.136L36.5148 113.003L39.2193 110.298L47.7759 118.898L56.2105 110.463L58.915 113.168L50.8237 121.259L58.9157 129.392L56.2112 132.097L47.6546 123.497L39.2199 131.931L36.5154 129.227L44.6066 121.136Z" fill="white"/>
<path fill-rule="evenodd" clip-rule="evenodd" d="M61.1543 98.341V101H64.7423L72.3212 93.421L75.0258 96.1255L67.8494 103.302L67.9361 103.528C69.4464 107.469 70.2972 111.917 70.2972 116.627C70.2972 117.521 70.2665 118.406 70.2064 119.281L70.1926 119.48H79.6343V123.305H69.7121L69.6841 123.458C68.8779 127.867 67.309 131.887 65.1728 135.269L65.0138 135.521L74.1404 144.694L71.4291 147.391L62.6987 138.617L62.4349 138.912C58.4908 143.323 53.3804 145.968 47.8134 145.968C42.16 145.968 36.9774 143.241 33.0091 138.705L32.7463 138.405L24.19 146.961L21.4855 144.257L30.4602 135.282L30.3048 135.031C28.2446 131.698 26.7299 127.763 25.9426 123.458L25.9146 123.305H16V119.48H25.434L25.4203 119.281C25.3602 118.406 25.3295 117.521 25.3295 116.627C25.3295 111.979 26.1583 107.585 27.6318 103.683L27.7167 103.458L20.3528 96.0566L23.0641 93.3589L30.6667 101H34.4724V98.341C34.4724 90.9729 40.4454 85 47.8134 85C55.1814 85 61.1543 90.9729 61.1543 98.341ZM38.2972 98.341V101H57.3295V98.341C57.3295 93.0853 53.069 88.8248 47.8134 88.8248C42.5577 88.8248 38.2972 93.0853 38.2972 98.341ZM64.429 105.067L64.3379 104.825H31.2887L31.1977 105.067C29.9022 108.509 29.1543 112.429 29.1543 116.627C29.1543 123.986 31.4536 130.496 34.9784 135.078C38.5001 139.656 43.0743 142.143 47.8134 142.143C52.5524 142.143 57.1266 139.656 60.6483 135.078C64.1731 130.496 66.4724 123.986 66.4724 116.627C66.4724 112.429 65.7245 108.509 64.429 105.067Z" fill="white"/>
<defs>
<clipPath id="clip0">
<rect width="315" height="200.455" fill="white" transform="translate(45)"/>
</clipPath>
</defs>
</svg>
